<svg width="441" height="117" viewBox="0 0 441 117" fill="none" xmlns="http://www.w3.org/2000/svg">
<path d="M59.6323 28.9355H66.0484V91.8387H59.6323V77.6226C54.3484 87.0581 44.6613 93.2226 32.5839 93.2226C14.7194 93.2226 0 79.0065 0 60.3871C0 41.7677 14.7194 27.5516 32.5839 27.5516C44.6613 27.5516 54.3484 33.7161 59.6323 43.1516V28.9355ZM33.0871 87.1839C48.0581 87.1839 59.6323 75.3581 59.6323 60.3871C59.6323 45.4161 48.0581 33.5903 33.0871 33.5903C18.1161 33.5903 6.41613 45.4161 6.41613 60.3871C6.41613 75.3581 18.1161 87.1839 33.0871 87.1839Z" fill="#E95C0F"/>
<path d="M91.654 41.2646C95.9314 31.3258 104.109 28.0549 112.664 28.0549V34.0936C101.844 34.0936 91.654 40.7613 91.654 56.8646V91.8388H85.3637V28.9355H91.654V41.2646Z" fill="#40CCB8"/>
<path d="M171.586 28.9355H178.254L151.709 91.8388H144.035L117.364 28.9355H124.157L147.809 85.2968L171.586 28.9355Z" fill="#B71A36"/>
<path d="M242.568 28.9355H248.984V91.8387H242.568V77.6226C237.284 87.0581 227.597 93.2226 215.519 93.2226C197.655 93.2226 182.935 79.0065 182.935 60.3871C182.935 41.7677 197.655 27.5516 215.519 27.5516C227.597 27.5516 237.284 33.7161 242.568 43.1516V28.9355ZM216.023 87.1839C230.993 87.1839 242.568 75.3581 242.568 60.3871C242.568 45.4161 230.993 33.5903 216.023 33.5903C201.052 33.5903 189.352 45.4161 189.352 60.3871C189.352 75.3581 201.052 87.1839 216.023 87.1839Z" fill="#4C5B97"/>
<path d="M268.299 91.8387V0H274.589V60.3871V91.8387H268.299Z" fill="#CB0327"/>
<path d="M349.331 28.9355H355.747V91.8387H349.331V77.6226C344.047 87.0581 334.36 93.2226 322.283 93.2226C304.418 93.2226 289.699 79.0065 289.699 60.3871C289.699 41.7677 304.418 27.5516 322.283 27.5516C334.36 27.5516 344.047 33.7161 349.331 43.1516V28.9355ZM322.786 87.1839C337.757 87.1839 349.331 75.3581 349.331 60.3871C349.331 45.4161 337.757 33.5903 322.786 33.5903C307.815 33.5903 296.115 45.4161 296.115 60.3871C296.115 75.3581 307.815 87.1839 322.786 87.1839Z" fill="#F04F14"/>
<path d="M408.401 27.5516C426.392 27.5516 440.985 41.7677 440.985 60.3871C440.985 79.0065 426.392 93.2226 408.401 93.2226C396.198 93.2226 386.511 86.9323 381.353 77.2452V117H375.063V28.9355H381.353V43.529C386.511 33.8419 396.198 27.5516 408.401 27.5516ZM408.024 87.1839C422.995 87.1839 434.695 75.3581 434.695 60.3871C434.695 45.4161 422.995 33.5903 408.024 33.5903C393.053 33.5903 381.353 45.4161 381.353 60.3871C381.353 75.3581 393.053 87.1839 408.024 87.1839Z" fill="#1FB230"/>
</svg>
